<svg width="18" height="18" viewBox="0 0 18 18" fill="none" xmlns="http://www.w3.org/2000/svg">
<path d="M9.00488 16C9.55693 15.9998 10.0043 16.447 10.0049 16.999C10.0052 17.5513 9.55814 17.9996 9.00586 18H8.99414C8.44186 17.9996 7.99476 17.5513 7.99512 16.999C7.99565 16.447 8.44307 15.9998 8.99512 16H9.00488ZM2.63281 13.9453C3.02354 13.5552 3.65664 13.5557 4.04688 13.9463C4.04903 13.9484 4.05155 13.951 4.05371 13.9531C4.44426 14.3434 4.44475 14.9765 4.05469 15.3672C3.6645 15.7579 3.03142 15.7582 2.64062 15.3682C2.63785 15.3654 2.6346 15.3621 2.63184 15.3594C2.2418 14.9686 2.24211 14.3355 2.63281 13.9453ZM13.9531 13.9463C14.3434 13.5557 14.9765 13.5552 15.3672 13.9453C15.7579 14.3355 15.7582 14.9686 15.3682 15.3594C15.3654 15.3621 15.3621 15.3654 15.3594 15.3682C14.9686 15.7582 14.3355 15.7579 13.9453 15.3672C13.5552 14.9765 13.5557 14.3434 13.9463 13.9531C13.9484 13.951 13.951 13.9484 13.9531 13.9463ZM0 8.99414C0.000355189 8.44186 0.448692 7.99476 1.00098 7.99512C1.55302 7.99565 2.00021 8.44307 2 8.99512V9.00488C2.00021 9.55693 1.55302 10.0043 1.00098 10.0049C0.448692 10.0052 0.000355203 9.55814 0 9.00586V8.99414ZM16 8.99512C15.9998 8.44307 16.447 7.99565 16.999 7.99512C17.5513 7.99476 17.9996 8.44186 18 8.99414V9.00586C17.9996 9.55814 17.5513 10.0052 16.999 10.0049C16.4813 10.0044 16.0556 9.61083 16.0049 9.10645L16 9.00488V8.99512ZM2.64062 2.63184C3.03142 2.2418 3.6645 2.24211 4.05469 2.63281C4.44475 3.02354 4.44426 3.65664 4.05371 4.04688C4.05155 4.04903 4.04903 4.05155 4.04688 4.05371C3.65664 4.44426 3.02354 4.44475 2.63281 4.05469C2.24211 3.6645 2.2418 3.03142 2.63184 2.64062C2.6346 2.63785 2.63785 2.6346 2.64062 2.63184ZM13.9453 2.63281C14.3355 2.24211 14.9686 2.2418 15.3594 2.63184C15.3621 2.6346 15.3654 2.63785 15.3682 2.64062C15.7582 3.03142 15.7579 3.6645 15.3672 4.05469C14.9765 4.44475 14.3434 4.44426 13.9531 4.05371C13.951 4.05155 13.9484 4.04903 13.9463 4.04688C13.5557 3.65664 13.5552 3.02354 13.9453 2.63281ZM9.00586 0C9.55814 0.000355189 10.0052 0.448692 10.0049 1.00098C10.0043 1.55302 9.55693 2.00021 9.00488 2H8.99512C8.44307 2.00021 7.99565 1.55302 7.99512 1.00098C7.99476 0.448692 8.44186 0.000355203 8.99414 0H9.00586Z" fill="white"/>
</svg>
